<svg xmlns="http://www.w3.org/2000/svg" width="150.283" height="336" viewBox="0 0 150.283 336"><g transform="translate(150.283) rotate(90)"><path d="M0,0H336V150.283H0Z" fill="none"/><rect width="6" height="150" fill="#c3c3c3"/><rect width="3" height="150" transform="translate(9)" fill="#c3c3c3"/><rect width="3" height="150" transform="translate(18)" fill="#c3c3c3"/><rect width="6" height="150" transform="translate(33)" fill="#c3c3c3"/><rect width="3" height="150" transform="translate(51)" fill="#c3c3c3"/><rect width="3" height="150" transform="translate(57)" fill="#c3c3c3"/><rect width="3" height="150" transform="translate(66)" fill="#c3c3c3"/><rect width="12" height="150" transform="translate(78)" fill="#c3c3c3"/><rect width="3" height="150" transform="translate(93)" fill="#c3c3c3"/><rect width="12" height="150" transform="translate(99)" fill="#c3c3c3"/><rect width="3" height="150" transform="translate(117)" fill="#c3c3c3"/><rect width="3" height="150" transform="translate(123)" fill="#c3c3c3"/><rect width="3" height="150" transform="translate(132)" fill="#c3c3c3"/><rect width="6" height="150" transform="translate(141)" fill="#c3c3c3"/><rect width="3" height="150" transform="translate(159)" fill="#c3c3c3"/><rect width="3" height="150" transform="translate(165)" fill="#c3c3c3"/><rect width="6" height="150" transform="translate(171)" fill="#c3c3c3"/><rect width="3" height="150" transform="translate(183)" fill="#c3c3c3"/><rect width="3" height="150" transform="translate(198)" fill="#c3c3c3"/><rect width="3" height="150" transform="translate(207)" fill="#c3c3c3"/><rect width="12" height="150" transform="translate(216)" fill="#c3c3c3"/><rect width="3" height="150" transform="translate(231)" fill="#c3c3c3"/><rect width="6" height="150" transform="translate(237)" fill="#c3c3c3"/><rect width="3" height="150" transform="translate(249)" fill="#c3c3c3"/><rect width="3" height="150" transform="translate(264)" fill="#c3c3c3"/><rect width="9" height="150" transform="translate(270)" fill="#c3c3c3"/><rect width="6" height="150" transform="translate(288)" fill="#c3c3c3"/><rect width="6" height="150" transform="translate(297)" fill="#c3c3c3"/><rect width="9" height="150" transform="translate(312)" fill="#c3c3c3"/><rect width="3" height="150" transform="translate(324)" fill="#c3c3c3"/><rect width="6" height="150" transform="translate(330)" fill="#c3c3c3"/></g></svg>