<svg xmlns="http://www.w3.org/2000/svg" viewBox="0 0 143.45 143.55"><defs><style>.cls-1{font-size:14px;fill:#231815;font-family:MonumentExtended-Black, Monument Extended;font-weight:800;}</style></defs><g id="レイヤー_2" data-name="レイヤー 2"><g id="レイヤー_1-2" data-name="レイヤー 1"><text class="cls-1" transform="matrix(0.81, -0.58, 0.58, 0.81, 31.91, 26.81)">s</text><text class="cls-1" transform="translate(41.7 19.71) rotate(-23.76)">c</text><text class="cls-1" transform="translate(53.31 14.71) rotate(-13)">r</text><text class="cls-1" transform="translate(62.73 12.35) rotate(-2.31)">o</text><text class="cls-1" transform="matrix(0.99, 0.1, -0.1, 0.99, 75.49, 12.11)">l</text><text class="cls-1" transform="translate(80.17 12.58) rotate(10.4)">l</text><text class="cls-1" transform="translate(84.8 13.41) rotate(15.21)"> </text><text class="cls-1" transform="matrix(0.93, 0.38, -0.38, 0.93, 89.84, 14.64)">t</text><text class="cls-1" transform="translate(98.32 17.87) rotate(32.58)">o</text><text class="cls-1" transform="translate(108.93 24.96) rotate(41.11)"> </text><text class="cls-1" transform="translate(113 28.1) rotate(49.61)">d</text><text class="cls-1" transform="matrix(0.53, 0.85, -0.85, 0.53, 121.06, 38)">i</text><text class="cls-1" transform="matrix(0.41, 0.91, -0.91, 0.41, 123.74, 41.73)">s</text><text class="cls-1" transform="translate(128.73 52.71) rotate(77.81)">c</text><text class="cls-1" transform="translate(131.35 65.03) rotate(89.07)">o</text><text class="cls-1" transform="translate(131.58 77.71) rotate(102.28)">v</text><text class="cls-1" transform="translate(128.71 90.9) rotate(114.83)">e</text><text class="cls-1" transform="matrix(-0.58, 0.81, -0.81, -0.58, 123.3, 102.35)">r</text><text class="cls-1" transform="matrix(-0.68, 0.74, -0.74, -0.68, 117.51, 110.25)"> </text><text class="cls-1" transform="translate(113.94 114.13) rotate(137.69)"> </text><text class="cls-1" transform="matrix(-0.83, 0.56, -0.56, -0.83, 110.33, 117.79)">s</text><text class="cls-1" transform="translate(100.38 124.61) rotate(157.76)">c</text><text class="cls-1" transform="translate(88.63 129.31) rotate(168.52)">r</text><text class="cls-1" transform="translate(79.15 131.4) rotate(179.07)">o</text><text class="cls-1" transform="translate(66.38 131.33) rotate(-172.6)">l</text><text class="cls-1" transform="translate(61.72 130.73) rotate(-168.08)">l</text><text class="cls-1" transform="matrix(-0.96, -0.29, 0.29, -0.96, 57.1, 129.77)"> </text><text class="cls-1" transform="translate(52.1 128.41) rotate(-156.33)">t</text><text class="cls-1" transform="translate(43.72 124.96) rotate(-145.91)">o</text><text class="cls-1" transform="translate(33.3 117.6) rotate(-137.39)"> </text><text class="cls-1" transform="translate(29.3 114.33) rotate(-128.87)">d</text><text class="cls-1" transform="matrix(-0.51, -0.86, 0.86, -0.51, 21.51, 104.24)">i</text><text class="cls-1" transform="translate(18.92 100.43) rotate(-112.53)">s</text><text class="cls-1" transform="translate(14.23 89.32) rotate(-100.67)">c</text><text class="cls-1" transform="translate(11.86 76.93) rotate(-88.68)">o</text><text class="cls-1" transform="translate(12.04 64.26) rotate(-76.2)">v</text><text class="cls-1" transform="translate(15.27 51.15) rotate(-63.64)">e</text><text class="cls-1" transform="matrix(0.6, -0.8, 0.8, 0.6, 20.97, 39.85)">r</text><text class="cls-1" transform="matrix(0.7, -0.72, 0.72, 0.7, 26.99, 32.1)"> </text></g></g></svg>