<svg xmlns="http://www.w3.org/2000/svg" width="251.421" height="43.984" viewBox="0 0 251.421 43.984"><path d="M33.888-32.192a2.1,2.1,0,0,0-2.464-.384l-.864.768L35.136-24.9,20.16-6.848H3.9c-2.24,0-2.656.576-2.048,2.56L6.24,9.856c.512,1.632,1.76,1.792,3.168.032l26.464-33.7L52.9,2.08a2.136,2.136,0,0,0,3.488,0l19.3-23.2c.448-.544,0-1.216-.864-.7-2.368,1.376-4.064,2.016-4.064,2.848,0,.736.736.736,0,1.632L56.128.192c-.384.48-.64.512-.992,0ZM18.944-5.408,8.96,6.656c-.48.576-1.056.448-1.344-.224L2.944-4.64c-.192-.48,0-.768.64-.768Zm80.064.576S94.656-3.616,92.48-3.04c-1.536.384-1.76.1-1.76.1,1.152-.768,2.336-1.632,2.336-2.656,0-1.088-1.28-1.824-4.672-1.824-6.5,0-14.88,3.232-14.88,6.048,0,1.28,2.176,1.6,4.064,1.6A32.406,32.406,0,0,0,87.84-1.7c.64.48,1.792.864,4.8-.032l4.832-1.408A1.921,1.921,0,0,0,99.008-4.832Zm-9.6-.384a.746.746,0,0,1-.224.48c-2.144.416-2.848.608-2.848,1.024,0,.384.512.928.512.928A20.614,20.614,0,0,1,80.1-1.376c-1.184,0-1.92-.128-2.048-.576C77.664-3.392,83.1-5.92,87.232-5.92,88.352-5.92,89.408-5.7,89.408-5.216Zm14.08.544A7.451,7.451,0,0,0,104.768,0a1.181,1.181,0,0,0,1.12.352A41.827,41.827,0,0,0,115.9-3.264l.224-.1A7.578,7.578,0,0,0,117.376,0a1.181,1.181,0,0,0,1.12.352,41.827,41.827,0,0,0,10.016-3.616c.352,1.408,2.624,1.952,6.3.832l2.848-.832a1.921,1.921,0,0,0,1.536-1.7S136-4,133.76-3.392c-1.856.48-2.912,0-2.688-.832,1.44-.832,2.4-1.44,2.592-2.144.192-.576-.416-.928-1.952-.64-2.048.416-2.784,1.344-3.1,2.24A37.984,37.984,0,0,1,120.384-1.6a4.987,4.987,0,0,1-.96-3.456c0-.48.032-.832.064-1.312.064-.608.192-.928-1.344-.64C116.1-6.592,116.1-5.92,116-4.768A37.984,37.984,0,0,1,107.776-1.6a6.185,6.185,0,0,1-.864-4.768c.1-.736.032-1.088-1.184-.512a53.531,53.531,0,0,1-8,3.008c-1.664.48-1.664,1.7-1.664,1.7A48.4,48.4,0,0,0,103.488-4.672Zm37.664,4.1c-.576.7-.16.96.864.672,7.84-2.5,12.224-3.648,15.808-4.416.7-.16.864,0,.352.64l-2.528,3.1c-.448.512-.128.96.864.672l11.1-3.2a1.924,1.924,0,0,0,1.568-1.728L160.352-2.4l2.624-3.168c.992-1.216.608-1.6-1.5-1.184a125.342,125.342,0,0,0-15.584,4.32l4.192-5.12c6.048-3.456,12.448-8.96,14.432-16,.448-1.632.32-2.528-.384-2.528s-1.888.832-3.872,2.944c-3.328,3.488-6.88,7.712-13.632,15.84a51.25,51.25,0,0,1-9.088,3.424,1.829,1.829,0,0,0-1.568,1.728A48.983,48.983,0,0,0,144.96-5.28Zm21.824-22.08c-1.7,4.544-5.472,9.024-10.784,12.512,0,0,4.96-5.952,7.424-8.928,1.984-2.432,3.168-3.744,3.168-3.744C163.04-23.1,163.1-23.008,162.976-22.656Zm12,20.416a22.765,22.765,0,0,0,4.864,0c-2.592.928-4,1.792-4.16,2.4-.128.512.224.832,1.7.832,4.1,0,13.952-2.272,19.1-4.032a2.019,2.019,0,0,0,1.568-1.792c-6.08,1.888-14.08,3.968-16.736,3.968-.512,0-.7-.16-.7-.384,0-.192.32-.608,1.76-1.056,2.3-.736,1.76-1.28,1.76-1.28a27.917,27.917,0,0,1-4.608,0c-2.784-.288.384-2.272,7.072-2.272,3.072,0,3.808.544,3.648,1.28l-.032.192c.832,0,2.336-.544,2.5-1.28.16-.672-.288-1.728-4.672-1.728-4.672,0-10.112.736-18.08,2.944l-1.984.576A1.924,1.924,0,0,0,166.4-2.144l3.68-.96c2.976-.768,4.8-1.344,5.184-1.472C173.952-4,172.192-2.688,174.976-2.24ZM224.32-4.864l-3.488.992c-3.488.992-4.448,0-2.112-1.568.544-.352-.256-1.408-.256-1.408A32.608,32.608,0,0,0,205.6-3.328l2.432-2.848c.448-.544.16-.992-.864-.7L196.576-3.872a1.924,1.924,0,0,0-1.568,1.728l8.32-2.24L200.192-.576c-.576.7-.032,1.056.9.576,6.08-3.168,10.688-4.544,13.568-4.864-1.216,1.7-.416,4.16,5.248,2.528l2.88-.832A1.9,1.9,0,0,0,224.32-4.864Zm5.632,2.624a22.765,22.765,0,0,0,4.864,0c-2.592.928-4,1.792-4.16,2.4-.128.512.224.832,1.7.832,4.1,0,13.952-2.272,19.1-4.032a2.019,2.019,0,0,0,1.568-1.792c-6.08,1.888-14.08,3.968-16.736,3.968-.512,0-.7-.16-.7-.384,0-.192.32-.608,1.76-1.056,2.3-.736,1.76-1.28,1.76-1.28a27.917,27.917,0,0,1-4.608,0c-2.784-.288.384-2.272,7.072-2.272,3.072,0,3.808.544,3.648,1.28l-.032.192c.832,0,2.336-.544,2.5-1.28.16-.672-.288-1.728-4.672-1.728-4.672,0-10.112.736-18.08,2.944l-1.984.576a1.924,1.924,0,0,0-1.568,1.728l3.68-.96c2.976-.768,4.8-1.344,5.184-1.472C228.928-4,227.168-2.688,229.952-2.24Z" transform="translate(-1.603 32.839)" fill="#c3c3c3"/></svg>