<?xml version="1.0" standalone="no"?>
<!DOCTYPE svg PUBLIC "-//W3C//DTD SVG 20010904//EN"
 "http://www.w3.org/TR/2001/REC-SVG-20010904/DTD/svg10.dtd">
<svg version="1.0" xmlns="http://www.w3.org/2000/svg"
 width="1080.000000pt" height="1080.000000pt" viewBox="0 0 1080.000000 1080.000000"
 preserveAspectRatio="xMidYMid meet">
<metadata>
Created by potrace 1.11, written by Peter Selinger 2001-2013
</metadata>
<g transform="translate(0.000000,1080.000000) scale(0.100000,-0.100000)"
fill="#000000" stroke="none">
<path d="M0 5400 l0 -5400 5400 0 5400 0 0 5400 0 5400 -5400 0 -5400 0 0
-5400z m4816 2999 c45 -23 85 -82 1381 -2059 734 -1119 1345 -2046 1358 -2059
17 -17 30 -22 47 -18 16 4 325 368 943 1108 506 606 933 1120 948 1143 31 45
32 68 3 144 -14 37 -14 47 -2 76 16 39 75 89 171 143 198 112 374 203 395 203
48 0 73 -46 49 -92 -14 -26 -2377 -2868 -2437 -2931 -58 -61 -110 -88 -184
-94 -72 -7 -135 10 -181 48 -22 18 -432 632 -1108 1660 l-1072 1630 -22 -23
c-12 -13 -757 -959 -1655 -2103 -898 -1144 -1653 -2102 -1679 -2128 -127 -134
-252 -141 -319 -19 -35 62 -601 1895 -608 1967 -9 82 11 126 68 157 l43 23
1102 5 1103 5 936 1128 935 1129 -268 405 c-147 223 -276 418 -286 433 l-17
27 57 50 c85 73 89 74 175 70 56 -3 89 -10 124 -28z"/>
<path d="M1056 5000 c-40 -8 -56 -23 -56 -53 0 -20 582 -1408 607 -1447 36
-55 72 -63 122 -27 30 21 1271 1514 1271 1530 0 9 -1893 7 -1944 -3z"/>
</g>
</svg>
